# xmcd
#
# Track frame offsets:
#	150
#	12883
#	28257
#	42481
#	58750
#	76520
#	99050
#	115509
#	135169
#	154637
#	181573
#	206244
#	220763
#	230423
#	248264
#	268777
#	288749
#	301399
#
# Disc length: 4296 seconds
#
# Revision: 1
# Processed by: cddbd v1.5.2PL0 Copyright (c) Steve Scherf et al.
# Submitted via: audiograbber 1.83.01
#
DISCID=e010c612
DTITLE=Blue Sage - Live at the Junction Theater
DYEAR=2004
DGENRE=Western Folk
TTITLE0=Ashokan Farewell
TTITLE1=Old Bill Pickett
TTITLE2=Colorado Trail
TTITLE3=Ragtime Cowboy Joe
TTITLE4=Roseville Fair
TTITLE5=Fiddle Tune Medley
TTITLE6=Old Double Diamond
TTITLE7=Nellie Kane
TTITLE8=Lumberjack Song
TTITLE9=Orange Blossom Special
TTITLE10=Night Rider's Lament
TTITLE11=Colleen Malone
TTITLE12=Miss Molly
TTITLE13=Bury Me Not On the Lone Prairie
TTITLE14=Coleraine/Dark Rider
TTITLE15=Piney River Girl
TTITLE16=Skipping In the Mississippi Dew
TTITLE17=When You And I Were Young Maggie
EXTD=
EXTT0=
EXTT1=
EXTT2=
EXTT3=
EXTT4=
EXTT5=
EXTT6=
EXTT7=
EXTT8=
EXTT9=
EXTT10=
EXTT11=
EXTT12=
EXTT13=
EXTT14=
EXTT15=
EXTT16=
EXTT17=
PLAYORDER=
